<?xml version="1.0" standalone="no"?>
<!DOCTYPE svg PUBLIC "-//W3C//DTD SVG 20010904//EN"
 "http://www.w3.org/TR/2001/REC-SVG-20010904/DTD/svg10.dtd">
<svg version="1.0" xmlns="http://www.w3.org/2000/svg"
 width="1024.000000pt" height="1024.000000pt" viewBox="0 0 1024.000000 1024.000000"
 preserveAspectRatio="xMidYMid meet">

<g transform="translate(0.000000,1024.000000) scale(0.100000,-0.100000)"
fill="#000000" stroke="none">
<path d="M4980 8000 c-229 -19 -352 -46 -603 -134 -462 -161 -851 -443 -1127
-816 -273 -369 -429 -747 -496 -1197 -21 -140 -24 -501 -5 -633 19 -135 71
-341 130 -512 28 -81 51 -154 51 -164 0 -12 6 -15 23 -11 12 3 52 11 88 18
l66 12 -24 61 c-45 112 -93 260 -123 376 -31 127 -70 344 -70 396 l0 34 424 0
c233 0 444 3 469 6 l45 6 6 -88 c12 -154 26 -265 53 -405 l26 -136 26 13 c14
7 47 22 74 33 26 11 47 22 47 24 0 1 -9 45 -20 97 -28 124 -50 297 -50 382 0
80 2 81 129 76 45 -2 81 -2 81 -1 0 0 -24 15 -54 31 -33 19 -67 49 -89 80 -29
41 -40 49 -58 45 -21 -6 -21 -5 -15 88 24 324 106 829 148 912 8 15 -1 22 -57
48 -37 16 -72 28 -78 26 -12 -4 -28 -69 -77 -307 -29 -144 -62 -413 -79 -648
-5 -68 -10 -124 -12 -125 -2 -1 -216 -1 -475 1 l-470 3 18 157 c33 284 78 462
175 690 97 229 263 493 414 661 71 78 251 243 334 305 77 58 285 186 380 233
123 62 557 207 600 201 15 -2 3 -15 -50 -52 -160 -114 -363 -321 -463 -476
-63 -96 -132 -224 -132 -244 0 -16 132 -44 137 -30 2 5 24 45 49 90 125 221
311 412 576 588 96 64 177 116 179 116 3 0 8 -201 12 -446 3 -245 8 -448 11
-451 3 -3 22 -9 43 -13 21 -4 51 -11 66 -15 l28 -7 -3 466 c-2 256 -2 466 -1
466 0 0 41 -23 90 -52 236 -139 398 -281 554 -486 92 -120 236 -340 253 -384
6 -15 14 -28 18 -28 4 0 29 20 56 44 l50 43 -31 49 c-17 27 -56 95 -86 151
-117 215 -345 473 -520 588 -50 33 -91 64 -91 69 0 14 75 -2 209 -45 289 -94
494 -192 739 -356 200 -133 192 -129 192 -113 0 6 -6 8 -12 4 -7 -3 -1 4 14
17 21 18 28 35 30 66 3 44 4 44 55 -1 13 -11 25 -18 27 -15 2 2 -22 24 -52 48
-31 25 -52 39 -47 31 5 -9 4 -11 -4 -6 -6 4 -9 11 -6 16 3 4 -34 37 -82 72
-324 236 -713 391 -1108 443 -149 20 -386 26 -525 15z"/>
<path d="M7150 7340 c-163 -17 -276 -77 -538 -289 -79 -64 -159 -127 -177
-141 -185 -141 -303 -251 -337 -313 -39 -71 -63 -94 -134 -128 -79 -37 -154
-49 -154 -25 0 11 20 26 55 41 30 14 55 27 55 30 0 2 -18 17 -40 31 -43 28
-70 82 -73 147 -1 20 -5 37 -9 37 -11 0 -112 -81 -135 -109 -11 -14 -25 -23
-29 -19 -4 5 1 17 11 28 39 44 0 57 -306 105 -123 19 -258 42 -299 50 -200 40
-825 125 -921 125 -52 0 -149 -26 -149 -40 0 -19 41 -51 98 -76 113 -50 329
-143 462 -197 74 -31 203 -86 285 -122 83 -37 166 -72 185 -80 37 -14 262
-117 437 -201 56 -27 101 -52 100 -55 -3 -10 -208 -190 -270 -237 -140 -109
-160 -108 -487 7 -80 28 -155 51 -168 51 -12 0 -41 -12 -65 -27 -23 -15 -43
-28 -45 -29 -3 -2 126 -216 138 -228 4 -4 50 -17 102 -27 124 -26 128 -27 128
-51 0 -23 16 -24 -250 23 -248 44 -369 55 -419 40 -60 -17 -55 -42 17 -84 70
-41 137 -73 267 -127 177 -74 215 -92 215 -106 0 -22 17 -25 66 -13 55 14 45
23 159 -146 114 -171 122 -178 184 -180 l53 -2 -6 62 c-12 119 -53 345 -65
359 -11 13 -6 18 26 31 21 9 74 31 118 50 176 74 421 203 557 293 21 13 50 32
67 41 16 9 49 29 72 45 24 16 82 54 129 84 103 67 367 263 458 341 37 31 101
84 142 116 217 171 546 486 632 603 42 58 85 152 94 209 8 51 -23 90 -81 103
-44 10 -47 10 -155 0z m19 -23 c-26 -21 -139 -75 -128 -61 13 16 102 62 123
63 5 1 7 0 5 -2z m-384 -322 c0 -36 -3 -40 -25 -40 -18 0 -27 7 -34 27 -12 33
7 60 38 56 17 -2 21 -10 21 -43z m-127 -76 c1 -19 -2 -41 -7 -49 -8 -12 -13
-12 -30 4 -25 23 -27 43 -4 68 23 26 38 18 41 -23z m-112 -83 c3 -19 3 -39 -1
-45 -12 -20 -42 -11 -54 16 -11 24 -10 29 9 45 31 25 38 23 46 -16z m-125 -73
c7 -19 7 -35 -1 -51 -12 -28 -30 -25 -50 11 -13 23 -13 28 4 46 25 28 34 26
47 -6z m-117 -89 c19 -50 -8 -89 -38 -55 -19 21 -20 43 -4 59 17 17 35 15 42
-4z"/>
<path d="M5858 6759 c-56 -32 30 -189 103 -189 61 0 51 139 -13 184 -26 18
-65 20 -90 5z"/>
<path d="M7212 6717 l-53 -53 56 -115 c67 -140 146 -377 174 -521 26 -136 51
-325 51 -389 l0 -49 -275 0 -275 0 1 -27 c0 -16 6 -50 12 -77 l12 -49 263 2
c184 2 262 -1 262 -9 0 -6 -5 -54 -11 -108 -34 -309 -151 -648 -320 -930 -156
-258 -393 -507 -666 -699 -118 -82 -336 -192 -478 -242 -99 -34 -347 -103
-352 -97 -2 1 23 22 56 44 225 158 518 593 664 987 56 149 135 470 145 589 8
86 7 90 -20 130 -15 22 -44 61 -65 85 -30 34 -39 40 -40 25 -1 -11 -11 -83
-22 -161 -77 -529 -172 -795 -415 -1158 -94 -141 -261 -315 -376 -392 -70 -47
-261 -153 -276 -153 -3 0 -3 12 1 28 4 15 3 370 -1 789 l-7 762 -21 -11 c-12
-6 -47 -32 -79 -57 l-58 -46 7 -225 c3 -124 3 -453 -1 -731 l-8 -506 -126 63
c-271 135 -466 343 -664 709 -42 77 -80 146 -84 153 -6 9 -23 7 -76 -10 -63
-21 -68 -24 -62 -47 6 -23 82 -166 166 -312 97 -168 290 -382 454 -503 44 -33
84 -62 88 -66 12 -11 -135 23 -275 64 -361 103 -698 301 -950 558 l-106 108
-96 -11 -95 -12 70 -81 c115 -135 333 -326 469 -412 240 -151 479 -256 726
-318 221 -55 351 -69 654 -70 298 -1 385 9 609 70 520 142 926 406 1254 814
279 347 406 613 496 1040 104 490 33 1044 -192 1511 -90 188 -81 181 -145 116z"/>
<path d="M6584 6269 c-8 -14 -86 -78 -309 -253 -48 -37 -110 -82 -139 -99
-107 -64 -115 -70 -106 -87 5 -9 44 -54 87 -101 105 -113 270 -315 438 -538
114 -151 147 -187 180 -202 39 -17 89 -16 101 2 2 5 -6 66 -20 136 -13 70 -36
202 -51 293 -28 177 -50 293 -66 352 -8 30 -16 39 -42 46 l-32 9 48 22 c27 11
55 21 62 21 7 0 27 21 45 48 28 42 31 53 27 100 -11 110 -60 130 -156 66 -29
-20 -52 -32 -49 -28 2 5 10 21 17 35 11 23 10 39 -6 110 -14 60 -22 79 -29 68z"/>
<path d="M5130 6094 c0 -46 1 -84 3 -84 1 0 23 8 49 18 47 18 98 54 98 70 0
17 -36 40 -92 60 l-58 20 0 -84z"/>
<path d="M5985 5613 c-16 -2 -53 -6 -82 -9 -50 -5 -53 -7 -107 -79 -31 -41
-56 -77 -56 -81 0 -10 402 4 412 14 6 6 -21 40 -64 84 -63 65 -77 74 -103 71z"/>
<path d="M5516 5461 c-12 -5 -15 -10 -9 -14 6 -4 16 0 23 8 14 17 13 17 -14 6z"/>
<path d="M4611 5234 c0 -11 3 -14 6 -6 3 7 2 16 -1 19 -3 4 -6 -2 -5 -13z"/>
<path d="M2452 5096 c-91 -94 -127 -140 -150 -188 -43 -92 -62 -163 -62 -235
0 -62 1 -65 45 -112 65 -70 232 -137 389 -156 51 -7 60 -5 77 14 11 11 19 23
19 26 0 3 0 6 1 8 8 27 4 38 -14 42 -192 42 -294 87 -341 148 -13 18 -32 56
-42 86 -32 99 9 253 95 356 28 33 64 77 81 98 58 69 23 38 -98 -87z"/>
<path d="M4016 4671 c-39 -16 -72 -33 -73 -38 -2 -6 9 -44 25 -84 17 -41 31
-81 33 -90 4 -15 12 -13 74 10 39 15 69 30 68 34 -21 95 -48 197 -52 196 -4 0
-37 -13 -75 -28z"/>
<path d="M3061 4409 c-24 -5 -46 -11 -49 -14 -3 -3 18 -39 46 -79 29 -41 52
-80 52 -86 0 -9 21 -10 78 -5 42 4 82 10 89 14 8 4 -4 34 -39 94 l-51 87 -41
-1 c-22 -1 -61 -5 -85 -10z"/>
</g>
</svg>
